<?xml version="1.0" encoding="utf-8"?>
<!-- Generator: Adobe Illustrator 26.0.0, SVG Export Plug-In . SVG Version: 6.00 Build 0)  -->
<svg version="1.1" id="Layer_1" xmlns="http://www.w3.org/2000/svg" xmlns:xlink="http://www.w3.org/1999/xlink" x="0px" y="0px"
	 viewBox="0 0 200 66" style="enable-background:new 0 0 200 66;" xml:space="preserve">
<style type="text/css">
	.st0{fill:#FCFCFC;}
	.st1{fill:#091220;}
	.st2{fill:#FFFFFF;}
	.st3{fill:#FFA500;}
</style>
<g>
	<path class="st0" d="M403.15-50.85c20.53,0,37.24,16.71,37.24,37.24s-16.71,37.24-37.24,37.24s-37.24-16.71-37.24-37.24
		S382.62-50.85,403.15-50.85 M403.15-59.77c-25.49,0-46.15,20.66-46.15,46.15c0,25.49,20.66,46.15,46.15,46.15
		s46.15-20.66,46.15-46.15C449.31-39.11,428.64-59.77,403.15-59.77L403.15-59.77z"/>
	<path class="st0" d="M425,54.38c23.76,0,43.08,19.33,43.08,43.08v13.19c0,10.04-8.17,18.21-18.21,18.21h-89.75
		c-10.04,0-18.21-8.17-18.21-18.21V97.46c0-23.76,19.33-43.08,43.08-43.08H425 M425,45.46H385c-28.72,0-52,23.28-52,52v13.19
		c0,14.98,12.14,27.12,27.12,27.12h89.75c14.98,0,27.12-12.14,27.12-27.12V97.46C477,68.74,453.72,45.46,425,45.46L425,45.46z"/>
</g>
<g>
	<g>
		<polygon class="st1" points="5.6,30.23 5.59,30.23 5.59,29.88 		"/>
	</g>
	<g>
		<g>
			<path class="st2" d="M186.81,4.38H13.19C8.67,4.38,5,8.06,5,12.58v36.7c0,4.52,3.67,8.19,8.19,8.19h44.56v-2.79H13.19
				c-2.98,0-5.4-2.42-5.4-5.4v-36.7c0-2.98,2.42-5.4,5.4-5.4h173.61c2.98,0,5.4,2.42,5.4,5.4v36.7c0,2.98-2.42,5.4-5.4,5.4h-44.56
				v2.79h44.56c4.52,0,8.19-3.67,8.19-8.19v-36.7C195,8.06,191.33,4.38,186.81,4.38z"/>
		</g>
	</g>
	<g>
		<g>
			<path class="st2" d="M31.71,38.27l3.5-19.92h-8.19l-4.61,26.13h16.08l1.11-6.2H31.71z"/>
		</g>
		<g>
			<path class="st2" d="M60.62,18.35c-0.96-2.56-1.78-4.41-1.79-4.44l-0.27-0.59l-0.48,0.43c-0.19,0.18-2.25,2.07-4.62,4.59h-7.93
				l-2.59,14.72c-0.17,0.93-0.26,1.86-0.26,2.76c0,2.86,0.87,5.05,2.62,6.59c1.75,1.54,4.08,2.31,7.01,2.31
				c2.29,0,4.39-0.43,6.29-1.3c1.91-0.86,3.52-2.17,4.83-3.91c1.31-1.75,2.2-3.9,2.63-6.46l2.59-14.72H60.62z M58.23,14.89
				c0.39,0.93,1.18,2.84,2,5.1c0.02,0.07,0.05,0.15,0.07,0.23c1.38,3.87,2,8.98,1.46,11.9c-0.23,1.2-0.63,2.32-1.21,3.34
				c-1.77,3.15-4.86,4.82-7.85,4.27c-1.96-0.36-3.63-1.63-4.71-3.57c-1.1-1.96-1.46-4.37-1.01-6.79c0.48-2.59,3.57-6.47,6.45-9.62
				C55.46,17.55,57.37,15.72,58.23,14.89z"/>
		</g>
		<g>
			<path class="st2" d="M92.92,25.14c0.07-0.49,0.1-0.94,0.1-1.36c0-1.77-0.65-3.12-1.97-4.04c-1.31-0.92-3.16-1.38-5.52-1.38H72.22
				L67.6,44.48h13.69c2.83,0,5.11-0.62,6.85-1.86c1.73-1.24,2.8-3.01,3.18-5.29c0.07-0.44,0.11-0.86,0.11-1.26
				c0-1.2-0.33-2.26-1.01-3.15c-0.68-0.9-1.65-1.51-2.94-1.83c1.38-0.35,2.56-1.04,3.55-2.09C92.02,27.95,92.64,26.66,92.92,25.14z
				 M83.17,36.1c-0.1,0.64-0.35,1.1-0.75,1.39c-0.41,0.28-0.98,0.42-1.72,0.42h-3.73l0.63-3.69h3.73c1.25,0,1.88,0.47,1.88,1.41
				C83.21,35.81,83.2,35.98,83.17,36.1z M84.28,26.72c-0.09,0.62-0.35,1.07-0.77,1.37c-0.42,0.29-0.99,0.44-1.74,0.44H78.6
				l0.67-3.68h3.17c0.64,0,1.12,0.1,1.43,0.33c0.3,0.22,0.46,0.58,0.46,1.07C84.32,26.45,84.3,26.6,84.28,26.72z"/>
		</g>
		<g>
			<path class="st2" d="M116.01,20.23c-1.45-1.25-3.58-1.88-6.38-1.88H97.45l-4.61,26.13h8.19l1.66-9.37l3.29,9.37h9l-3.91-10
				c1.92-0.59,3.48-1.55,4.68-2.89c1.2-1.34,1.97-2.89,2.29-4.67c0.1-0.49,0.15-1.04,0.15-1.66
				C118.19,23.16,117.46,21.48,116.01,20.23z M109.66,27.43c-0.15,0.77-0.45,1.33-0.9,1.68c-0.46,0.36-1.08,0.54-1.86,0.54h-3.25
				l0.77-4.43h3.25c0.66,0,1.17,0.15,1.51,0.46c0.35,0.31,0.51,0.73,0.51,1.27C109.7,27.14,109.69,27.3,109.66,27.43z"/>
		</g>
		<g>
			<path class="st2" d="M122.17,18.35l-4.61,26.13h8.19l4.62-26.13H122.17z"/>
		</g>
		<g>
			<path class="st2" d="M151.36,24.85l1.15-6.5h-18.45l-4.62,26.13h8.19l1.73-9.85h7.38l1.1-6.16h-7.38l0.63-3.61H151.36z"/>
		</g>
		<g>
			<path class="st2" d="M171.13,18.35l-5.79,9.26l-2.54-9.26h-9.37l6.16,18.19l-1.41,7.94h8.19l1.41-7.94l12.58-18.19H171.13z"/>
		</g>
	</g>
	<g>
		<g>
			<path class="st2" d="M56.37,37.7c1.32-1.03,2.25-2.29,2.84-3.71c0.28-0.72,0.48-1.47,0.61-2.25c0.08-0.39,0.1-0.79,0.16-1.19
				c0.04-0.4,0.05-0.81,0.12-1.24c0.14,0.39,0.25,0.8,0.34,1.22c0.04,0.42,0.12,0.84,0.11,1.27c0.01,0.86-0.17,1.72-0.47,2.54
				c-0.34,0.8-0.83,1.55-1.47,2.14C57.96,37.07,57.2,37.53,56.37,37.7z"/>
		</g>
	</g>
	<g>
		<path class="st2" d="M61.93,54.37v3.19c0,0.26,0.06,0.45,0.17,0.56s0.31,0.16,0.58,0.16h0.66v0.76h-0.81
			c-0.5,0-0.88-0.12-1.13-0.35c-0.25-0.23-0.38-0.61-0.38-1.14v-3.19h-0.7v-0.74h0.7v-1.36h0.9v1.36h1.41v0.74H61.93z"/>
		<path class="st2" d="M66.01,53.79c0.29-0.17,0.65-0.26,1.07-0.26v0.93h-0.24c-1.01,0-1.51,0.55-1.51,1.64v2.95h-0.9v-5.42h0.9
			v0.88C65.49,54.2,65.72,53.96,66.01,53.79z"/>
		<path class="st2" d="M72.93,53.63v5.42h-0.9v-0.8c-0.17,0.28-0.41,0.49-0.72,0.65c-0.31,0.15-0.64,0.23-1.01,0.23
			c-0.42,0-0.8-0.09-1.14-0.26c-0.34-0.17-0.6-0.44-0.8-0.79c-0.19-0.35-0.29-0.77-0.29-1.28v-3.17h0.89v3.06
			c0,0.53,0.13,0.94,0.41,1.23c0.27,0.29,0.64,0.43,1.11,0.43c0.48,0,0.86-0.15,1.14-0.45c0.28-0.3,0.42-0.73,0.42-1.3v-2.98H72.93z
			"/>
		<path class="st2" d="M75.25,58.92c-0.33-0.14-0.59-0.34-0.78-0.59c-0.19-0.25-0.3-0.55-0.32-0.88h0.93
			c0.03,0.27,0.15,0.49,0.38,0.66c0.23,0.17,0.53,0.26,0.89,0.26c0.34,0,0.61-0.08,0.81-0.23c0.2-0.15,0.3-0.34,0.3-0.57
			c0-0.24-0.11-0.41-0.32-0.53c-0.21-0.12-0.54-0.23-0.98-0.34c-0.4-0.11-0.73-0.21-0.98-0.32c-0.25-0.11-0.47-0.27-0.65-0.48
			c-0.18-0.21-0.27-0.5-0.27-0.85c0-0.28,0.08-0.53,0.25-0.76c0.16-0.23,0.4-0.41,0.7-0.55c0.3-0.13,0.65-0.2,1.04-0.2
			c0.6,0,1.08,0.15,1.45,0.45c0.37,0.3,0.57,0.72,0.59,1.25h-0.9c-0.02-0.28-0.13-0.51-0.34-0.68c-0.21-0.17-0.49-0.26-0.84-0.26
			c-0.32,0-0.58,0.07-0.77,0.21c-0.19,0.14-0.29,0.32-0.29,0.54c0,0.18,0.06,0.32,0.17,0.44c0.12,0.12,0.26,0.21,0.44,0.28
			c0.17,0.07,0.42,0.15,0.73,0.23c0.39,0.11,0.71,0.21,0.95,0.31c0.24,0.1,0.45,0.26,0.63,0.46c0.17,0.2,0.27,0.47,0.27,0.8
			c0,0.3-0.08,0.56-0.25,0.8c-0.17,0.24-0.4,0.42-0.7,0.56c-0.3,0.13-0.64,0.2-1.03,0.2C75.95,59.14,75.58,59.07,75.25,58.92z"/>
		<path class="st2" d="M80.71,54.37v3.19c0,0.26,0.06,0.45,0.17,0.56c0.11,0.11,0.31,0.16,0.58,0.16h0.66v0.76h-0.81
			c-0.5,0-0.88-0.12-1.13-0.35c-0.25-0.23-0.38-0.61-0.38-1.14v-3.19h-0.7v-0.74h0.7v-1.36h0.9v1.36h1.41v0.74H80.71z"/>
		<path class="st2" d="M86.95,54.37v3.19c0,0.26,0.06,0.45,0.17,0.56c0.11,0.11,0.31,0.16,0.58,0.16h0.66v0.76h-0.81
			c-0.5,0-0.88-0.12-1.13-0.35c-0.25-0.23-0.38-0.61-0.38-1.14v-3.19h-0.7v-0.74h0.7v-1.36h0.9v1.36h1.41v0.74H86.95z"/>
		<path class="st2" d="M93.25,53.79c0.33,0.17,0.59,0.44,0.78,0.79c0.19,0.35,0.28,0.77,0.28,1.28v3.19h-0.89v-3.07
			c0-0.54-0.14-0.95-0.41-1.24c-0.27-0.29-0.64-0.43-1.11-0.43c-0.47,0-0.85,0.15-1.13,0.45c-0.28,0.3-0.42,0.73-0.42,1.3v3h-0.9
			v-7.32h0.9v2.67c0.18-0.28,0.42-0.49,0.74-0.64c0.31-0.15,0.66-0.23,1.05-0.23C92.55,53.53,92.92,53.62,93.25,53.79z"/>
		<path class="st2" d="M100.7,56.67h-4.33c0.03,0.53,0.22,0.95,0.55,1.25c0.33,0.3,0.74,0.45,1.21,0.45c0.39,0,0.71-0.09,0.97-0.27
			c0.26-0.18,0.44-0.42,0.55-0.73h0.97c-0.15,0.52-0.44,0.94-0.87,1.27s-0.98,0.49-1.62,0.49c-0.51,0-0.97-0.12-1.38-0.35
			c-0.41-0.23-0.72-0.56-0.95-0.98s-0.35-0.92-0.35-1.48c0-0.56,0.11-1.05,0.34-1.47c0.22-0.42,0.54-0.75,0.94-0.97
			c0.41-0.23,0.87-0.34,1.4-0.34c0.51,0,0.97,0.11,1.36,0.34c0.4,0.22,0.7,0.53,0.91,0.92c0.21,0.39,0.32,0.84,0.32,1.33
			C100.73,56.3,100.72,56.48,100.7,56.67z M99.57,55.06c-0.15-0.25-0.36-0.44-0.62-0.56c-0.26-0.13-0.55-0.19-0.87-0.19
			c-0.46,0-0.84,0.15-1.16,0.44c-0.32,0.29-0.5,0.69-0.55,1.21h3.42C99.8,55.6,99.72,55.31,99.57,55.06z"/>
		<path class="st2" d="M109.47,56.67h-4.33c0.03,0.53,0.22,0.95,0.55,1.25c0.33,0.3,0.74,0.45,1.21,0.45c0.39,0,0.71-0.09,0.97-0.27
			s0.44-0.42,0.55-0.73h0.97c-0.14,0.52-0.44,0.94-0.87,1.27s-0.98,0.49-1.62,0.49c-0.51,0-0.97-0.12-1.38-0.35
			c-0.41-0.23-0.72-0.56-0.95-0.98s-0.35-0.92-0.35-1.48c0-0.56,0.11-1.05,0.34-1.47c0.22-0.42,0.54-0.75,0.94-0.97
			c0.41-0.23,0.87-0.34,1.4-0.34c0.51,0,0.97,0.11,1.36,0.34c0.4,0.22,0.7,0.53,0.91,0.92c0.21,0.39,0.32,0.84,0.32,1.33
			C109.5,56.3,109.49,56.48,109.47,56.67z M108.34,55.06c-0.15-0.25-0.36-0.44-0.62-0.56c-0.26-0.13-0.55-0.19-0.87-0.19
			c-0.46,0-0.84,0.15-1.16,0.44c-0.32,0.29-0.5,0.69-0.55,1.21h3.42C108.57,55.6,108.49,55.31,108.34,55.06z"/>
		<path class="st2" d="M113.51,59.05l-1.29-2.02l-1.24,2.02h-0.94l1.75-2.69l-1.75-2.73h1.02l1.29,2.01l1.23-2.01h0.94l-1.74,2.68
			l1.75,2.74H113.51z"/>
		<path class="st2" d="M117.12,53.85c0.35-0.21,0.76-0.31,1.23-0.31c0.48,0,0.92,0.12,1.31,0.35c0.39,0.23,0.7,0.56,0.92,0.97
			c0.22,0.42,0.34,0.9,0.34,1.46c0,0.55-0.11,1.04-0.34,1.46c-0.22,0.43-0.53,0.76-0.92,1c-0.39,0.24-0.83,0.36-1.31,0.36
			c-0.46,0-0.87-0.1-1.22-0.31c-0.35-0.21-0.62-0.47-0.81-0.78v3.57h-0.9v-7.99h0.9v1C116.5,54.32,116.76,54.06,117.12,53.85z
			 M119.75,55.25c-0.16-0.3-0.39-0.53-0.67-0.69c-0.28-0.16-0.59-0.24-0.92-0.24c-0.33,0-0.63,0.08-0.91,0.24
			c-0.28,0.16-0.5,0.4-0.67,0.7c-0.17,0.31-0.25,0.66-0.25,1.06c0,0.41,0.08,0.77,0.25,1.07c0.17,0.31,0.39,0.54,0.67,0.7
			c0.28,0.16,0.59,0.24,0.91,0.24c0.34,0,0.64-0.08,0.92-0.24c0.28-0.16,0.5-0.4,0.67-0.7c0.16-0.31,0.25-0.67,0.25-1.08
			C120,55.91,119.92,55.55,119.75,55.25z"/>
		<path class="st2" d="M127.02,56.67h-4.33c0.03,0.53,0.22,0.95,0.55,1.25c0.33,0.3,0.74,0.45,1.21,0.45c0.39,0,0.71-0.09,0.97-0.27
			c0.26-0.18,0.44-0.42,0.55-0.73h0.97c-0.14,0.52-0.44,0.94-0.87,1.27s-0.98,0.49-1.62,0.49c-0.51,0-0.97-0.12-1.38-0.35
			c-0.41-0.23-0.72-0.56-0.95-0.98c-0.23-0.43-0.35-0.92-0.35-1.48c0-0.56,0.11-1.05,0.34-1.47c0.22-0.42,0.54-0.75,0.94-0.97
			c0.41-0.23,0.87-0.34,1.4-0.34c0.51,0,0.97,0.11,1.36,0.34c0.4,0.22,0.7,0.53,0.91,0.92c0.21,0.39,0.32,0.84,0.32,1.33
			C127.05,56.3,127.04,56.48,127.02,56.67z M125.9,55.06c-0.15-0.25-0.36-0.44-0.62-0.56c-0.26-0.13-0.55-0.19-0.87-0.19
			c-0.46,0-0.84,0.15-1.16,0.44c-0.32,0.29-0.5,0.69-0.55,1.21h3.42C126.12,55.6,126.05,55.31,125.9,55.06z"/>
		<path class="st2" d="M129.82,53.79c0.29-0.17,0.65-0.26,1.07-0.26v0.93h-0.24c-1.01,0-1.51,0.55-1.51,1.64v2.95h-0.9v-5.42h0.9
			v0.88C129.3,54.2,129.52,53.96,129.82,53.79z"/>
		<path class="st2" d="M133.03,54.37v3.19c0,0.26,0.06,0.45,0.17,0.56s0.31,0.16,0.58,0.16h0.66v0.76h-0.81
			c-0.5,0-0.88-0.12-1.13-0.35c-0.25-0.23-0.38-0.61-0.38-1.14v-3.19h-0.7v-0.74h0.7v-1.36h0.9v1.36h1.41v0.74H133.03z"/>
		<path class="st2" d="M136.33,58.92c-0.33-0.14-0.59-0.34-0.78-0.59c-0.19-0.25-0.3-0.55-0.32-0.88h0.93
			c0.03,0.27,0.15,0.49,0.38,0.66c0.23,0.17,0.53,0.26,0.89,0.26c0.34,0,0.61-0.08,0.81-0.23c0.2-0.15,0.3-0.34,0.3-0.57
			c0-0.24-0.11-0.41-0.32-0.53c-0.21-0.12-0.54-0.23-0.98-0.34c-0.4-0.11-0.73-0.21-0.98-0.32c-0.25-0.11-0.47-0.27-0.65-0.48
			c-0.18-0.21-0.27-0.5-0.27-0.85c0-0.28,0.08-0.53,0.25-0.76c0.16-0.23,0.4-0.41,0.7-0.55c0.3-0.13,0.65-0.2,1.04-0.2
			c0.6,0,1.08,0.15,1.45,0.45c0.37,0.3,0.57,0.72,0.59,1.25h-0.9c-0.02-0.28-0.13-0.51-0.34-0.68s-0.49-0.26-0.84-0.26
			c-0.32,0-0.58,0.07-0.77,0.21c-0.19,0.14-0.29,0.32-0.29,0.54c0,0.18,0.06,0.32,0.17,0.44c0.12,0.12,0.26,0.21,0.44,0.28
			c0.17,0.07,0.42,0.15,0.73,0.23c0.39,0.11,0.71,0.21,0.95,0.31s0.45,0.26,0.63,0.46c0.17,0.2,0.27,0.47,0.27,0.8
			c0,0.3-0.08,0.56-0.25,0.8c-0.17,0.24-0.4,0.42-0.7,0.56c-0.3,0.13-0.64,0.2-1.03,0.2C137.03,59.14,136.66,59.07,136.33,58.92z"/>
	</g>
	<g>
		<polygon class="st2" points="153.49,18.35 152.3,18.35 150.77,24.84 155.66,24.81 158.15,24.04 		"/>
	</g>
	<polygon class="st3" points="122.17,18.35 121.16,24.07 120.77,26.29 128.96,26.29 129.15,25.21 130.37,18.35 	"/>
</g>
<g>
	<g>
		<path class="st2" d="M556.48,65.63c-50.35,0-91.32-40.97-91.32-91.32S506.13-117,556.48-117c50.35,0,91.32,40.97,91.32,91.32
			S606.84,65.63,556.48,65.63z M556.48-106.51c-44.57,0-80.83,36.26-80.83,80.83s36.25,80.83,80.83,80.83s80.83-36.26,80.83-80.83
			S601.06-106.51,556.48-106.51z"/>
	</g>
	<g>
		<path class="st2" d="M659.59,79c-1.34,0-2.69-0.51-3.72-1.54L618.61,40.2c-2.04-2.05-2.04-5.37,0-7.42c2.05-2.05,5.38-2.05,7.43,0
			l37.26,37.26c2.04,2.05,2.04,5.37,0,7.42C662.28,78.49,660.93,79,659.59,79z"/>
	</g>
</g>
</svg>
