<?xml version="1.0" encoding="utf-8"?>
<!-- Generator: Adobe Illustrator 26.0.0, SVG Export Plug-In . SVG Version: 6.00 Build 0)  -->
<svg version="1.1" id="Layer_1" xmlns="http://www.w3.org/2000/svg" xmlns:xlink="http://www.w3.org/1999/xlink" x="0px" y="0px"
	 viewBox="0 0 77.4 77.4" style="enable-background:new 0 0 77.4 77.4;" xml:space="preserve">
<style type="text/css">
	.st0{fill:#FCFCFC;}
	.st1{fill:#091220;}
	.st2{fill:#FFFFFF;}
	.st3{fill:#FFA500;}
</style>
<g>
	<path class="st0" d="M341.8-45.2c20.5,0,37.2,16.7,37.2,37.2s-16.7,37.2-37.2,37.2s-37.2-16.7-37.2-37.2S321.3-45.2,341.8-45.2
		 M341.8-54.1c-25.5,0-46.1,20.7-46.1,46.2s20.7,46.2,46.1,46.2S388,17.6,388-7.9C388-33.4,367.3-54.1,341.8-54.1L341.8-54.1z"/>
	<path class="st0" d="M363.7,60.1c23.8,0,43.1,19.3,43.1,43.1v13.2c0,10-8.2,18.2-18.2,18.2h-89.8c-10,0-18.2-8.2-18.2-18.2v-13.2
		c0-23.8,19.3-43.1,43.1-43.1L363.7,60.1 M363.7,51.2h-40c-28.7,0-52,23.3-52,52v13.2c0,15,12.1,27.1,27.1,27.1h89.8
		c15,0,27.1-12.1,27.1-27.1v-13.2C415.7,74.4,392.4,51.2,363.7,51.2L363.7,51.2z"/>
</g>
<g>
	<g>
		<polygon class="st1" points="-55,218.5 -55,218.5 -55,218.2 		"/>
	</g>
	<g>
		<g>
			<path class="st2" d="M126.2,192.7H-47.4c-4.5,0-8.2,3.7-8.2,8.2v36.7c0,4.5,3.7,8.2,8.2,8.2h44.6V243h-44.6c-3,0-5.4-2.4-5.4-5.4
				v-36.7c0-3,2.4-5.4,5.4-5.4h173.6c3,0,5.4,2.4,5.4,5.4v36.7c0,3-2.4,5.4-5.4,5.4H81.7v2.8h44.6c4.5,0,8.2-3.7,8.2-8.2v-36.7
				C134.4,196.4,130.8,192.7,126.2,192.7z"/>
		</g>
	</g>
	<g>
		<g>
			<path class="st2" d="M-28.9,226.6l3.5-19.9h-8.2l-4.6,26.1h16.1l1.1-6.2L-28.9,226.6L-28.9,226.6z"/>
		</g>
		<g>
			<path class="st2" d="M0,206.7c-1-2.6-1.8-4.4-1.8-4.4l-0.3-0.6l-0.5,0.4c-0.2,0.2-2.2,2.1-4.6,4.6H-15l-2.6,14.7
				c-0.2,0.9-0.3,1.9-0.3,2.8c0,2.9,0.9,5.1,2.6,6.6c1.8,1.5,4.1,2.3,7,2.3c2.3,0,4.4-0.4,6.3-1.3c1.9-0.9,3.5-2.2,4.8-3.9
				c1.3-1.8,2.2-3.9,2.6-6.5l2.6-14.7L0,206.7L0,206.7z M-2.3,203.2c0.4,0.9,1.2,2.8,2,5.1c0,0.1,0,0.1,0.1,0.2
				c1.4,3.9,2,9,1.5,11.9c-0.2,1.2-0.6,2.3-1.2,3.3c-1.8,3.1-4.9,4.8-7.8,4.3c-2-0.4-3.6-1.6-4.7-3.6c-1.1-2-1.5-4.4-1-6.8
				c0.5-2.6,3.6-6.5,6.5-9.6C-5.1,205.9-3.2,204-2.3,203.2z"/>
		</g>
		<g>
			<path class="st2" d="M32.3,213.4c0.1-0.5,0.1-0.9,0.1-1.4c0-1.8-0.7-3.1-2-4c-1.3-0.9-3.2-1.4-5.5-1.4H11.6L7,232.8h13.7
				c2.8,0,5.1-0.6,6.8-1.9c1.7-1.2,2.8-3,3.2-5.3c0.1-0.4,0.1-0.9,0.1-1.3c0-1.2-0.3-2.3-1-3.2c-0.7-0.9-1.7-1.5-2.9-1.8
				c1.4-0.4,2.6-1,3.6-2.1C31.4,216.3,32.1,215,32.3,213.4z M22.6,224.4c-0.1,0.6-0.3,1.1-0.8,1.4c-0.4,0.3-1,0.4-1.7,0.4h-3.7
				l0.6-3.7h3.7c1.2,0,1.9,0.5,1.9,1.4C22.6,224.1,22.6,224.3,22.6,224.4z M23.7,215c-0.1,0.6-0.3,1.1-0.8,1.4
				c-0.4,0.3-1,0.4-1.7,0.4H18l0.7-3.7h3.2c0.6,0,1.1,0.1,1.4,0.3c0.3,0.2,0.5,0.6,0.5,1.1C23.7,214.8,23.7,214.9,23.7,215z"/>
		</g>
		<g>
			<path class="st2" d="M55.4,208.5c-1.4-1.2-3.6-1.9-6.4-1.9H36.9l-4.6,26.1h8.2l1.7-9.4l3.3,9.4h9l-3.9-10
				c1.9-0.6,3.5-1.6,4.7-2.9c1.2-1.3,2-2.9,2.3-4.7c0.1-0.5,0.2-1,0.2-1.7C57.6,211.5,56.9,209.8,55.4,208.5z M49.1,215.7
				c-0.2,0.8-0.4,1.3-0.9,1.7c-0.5,0.4-1.1,0.5-1.9,0.5h-3.2l0.8-4.4h3.2c0.7,0,1.2,0.2,1.5,0.5c0.3,0.3,0.5,0.7,0.5,1.3
				C49.1,215.4,49.1,215.6,49.1,215.7z"/>
		</g>
		<g>
			<path class="st2" d="M61.6,206.7L57,232.8h8.2l4.6-26.1H61.6z"/>
		</g>
		<g>
			<path class="st2" d="M90.8,213.2l1.1-6.5H73.5l-4.6,26.1h8.2l1.7-9.9h7.4l1.1-6.2h-7.4l0.6-3.6L90.8,213.2L90.8,213.2z"/>
		</g>
		<g>
			<path class="st2" d="M110.6,206.7l-5.8,9.3l-2.5-9.3h-9.4l6.2,18.2l-1.4,7.9h8.2l1.4-7.9l12.6-18.2H110.6z"/>
		</g>
	</g>
	<g>
		<g>
			<path class="st2" d="M-4.2,226c1.3-1,2.2-2.3,2.8-3.7c0.3-0.7,0.5-1.5,0.6-2.2c0.1-0.4,0.1-0.8,0.2-1.2c0-0.4,0-0.8,0.1-1.2
				c0.1,0.4,0.2,0.8,0.3,1.2c0,0.4,0.1,0.8,0.1,1.3c0,0.9-0.2,1.7-0.5,2.5c-0.3,0.8-0.8,1.5-1.5,2.1C-2.6,225.4-3.4,225.8-4.2,226z"
				/>
		</g>
	</g>
	<g>
		<path class="st2" d="M1.4,242.7v3.2c0,0.3,0.1,0.5,0.2,0.6s0.3,0.2,0.6,0.2h0.7v0.8H2c-0.5,0-0.9-0.1-1.1-0.4s-0.4-0.6-0.4-1.1
			v-3.2h-0.7v-0.7h0.7v-1.4h0.9v1.4h1.4v0.7L1.4,242.7L1.4,242.7z"/>
		<path class="st2" d="M5.4,242.1c0.3-0.2,0.7-0.3,1.1-0.3v0.9H6.3c-1,0-1.5,0.6-1.5,1.6v2.9H3.9v-5.4h0.9v0.9
			C4.9,242.5,5.1,242.3,5.4,242.1z"/>
		<path class="st2" d="M12.4,241.9v5.4h-0.9v-0.8c-0.2,0.3-0.4,0.5-0.7,0.6c-0.3,0.2-0.6,0.2-1,0.2c-0.4,0-0.8-0.1-1.1-0.3
			s-0.6-0.4-0.8-0.8c-0.2-0.4-0.3-0.8-0.3-1.3v-3.2h0.9v3.1c0,0.5,0.1,0.9,0.4,1.2c0.3,0.3,0.6,0.4,1.1,0.4c0.5,0,0.9-0.1,1.1-0.4
			s0.4-0.7,0.4-1.3v-3L12.4,241.9L12.4,241.9z"/>
		<path class="st2" d="M14.7,247.2c-0.3-0.1-0.6-0.3-0.8-0.6s-0.3-0.6-0.3-0.9h0.9c0,0.3,0.2,0.5,0.4,0.7c0.2,0.2,0.5,0.3,0.9,0.3
			c0.3,0,0.6-0.1,0.8-0.2s0.3-0.3,0.3-0.6c0-0.2-0.1-0.4-0.3-0.5c-0.2-0.1-0.5-0.2-1-0.3c-0.4-0.1-0.7-0.2-1-0.3s-0.5-0.3-0.7-0.5
			c-0.2-0.2-0.3-0.5-0.3-0.9c0-0.3,0.1-0.5,0.2-0.8c0.2-0.2,0.4-0.4,0.7-0.6c0.3-0.1,0.7-0.2,1-0.2c0.6,0,1.1,0.1,1.4,0.4
			c0.4,0.3,0.6,0.7,0.6,1.2h-0.9c0-0.3-0.1-0.5-0.3-0.7s-0.5-0.3-0.8-0.3c-0.3,0-0.6,0.1-0.8,0.2c-0.2,0.1-0.3,0.3-0.3,0.5
			c0,0.2,0.1,0.3,0.2,0.4c0.1,0.1,0.3,0.2,0.4,0.3c0.2,0.1,0.4,0.2,0.7,0.2c0.4,0.1,0.7,0.2,0.9,0.3c0.2,0.1,0.4,0.3,0.6,0.5
			c0.2,0.2,0.3,0.5,0.3,0.8c0,0.3-0.1,0.6-0.2,0.8c-0.2,0.2-0.4,0.4-0.7,0.6c-0.3,0.1-0.6,0.2-1,0.2C15.4,247.4,15,247.4,14.7,247.2
			z"/>
		<path class="st2" d="M20.1,242.7v3.2c0,0.3,0.1,0.5,0.2,0.6s0.3,0.2,0.6,0.2h0.7v0.8h-0.8c-0.5,0-0.9-0.1-1.1-0.4
			s-0.4-0.6-0.4-1.1v-3.2h-0.7v-0.7h0.7v-1.4h0.9v1.4h1.4v0.7L20.1,242.7L20.1,242.7z"/>
		<path class="st2" d="M26.4,242.7v3.2c0,0.3,0.1,0.5,0.2,0.6s0.3,0.2,0.6,0.2h0.7v0.8H27c-0.5,0-0.9-0.1-1.1-0.4s-0.4-0.6-0.4-1.1
			v-3.2h-0.7v-0.7h0.7v-1.4h0.9v1.4h1.4v0.7L26.4,242.7L26.4,242.7z"/>
		<path class="st2" d="M32.7,242.1c0.3,0.2,0.6,0.4,0.8,0.8c0.2,0.4,0.3,0.8,0.3,1.3v3.2h-0.9v-3.1c0-0.5-0.1-1-0.4-1.2
			c-0.3-0.3-0.6-0.4-1.1-0.4s-0.8,0.2-1.1,0.5c-0.3,0.3-0.4,0.7-0.4,1.3v3h-0.9V240h0.9v2.7c0.2-0.3,0.4-0.5,0.7-0.6
			c0.3-0.2,0.7-0.2,1.1-0.2C32,241.8,32.3,241.9,32.7,242.1z"/>
		<path class="st2" d="M40.1,245h-4.3c0,0.5,0.2,1,0.6,1.2c0.3,0.3,0.7,0.5,1.2,0.5c0.4,0,0.7-0.1,1-0.3c0.3-0.2,0.4-0.4,0.6-0.7h1
			c-0.2,0.5-0.4,0.9-0.9,1.3s-1,0.5-1.6,0.5c-0.5,0-1-0.1-1.4-0.3c-0.4-0.2-0.7-0.6-0.9-1s-0.3-0.9-0.3-1.5s0.1-1.1,0.3-1.5
			c0.2-0.4,0.5-0.8,0.9-1c0.4-0.2,0.9-0.3,1.4-0.3c0.5,0,1,0.1,1.4,0.3c0.4,0.2,0.7,0.5,0.9,0.9c0.2,0.4,0.3,0.8,0.3,1.3
			C40.2,244.6,40.1,244.8,40.1,245z M39,243.4c-0.2-0.2-0.4-0.4-0.6-0.6c-0.3-0.1-0.6-0.2-0.9-0.2c-0.5,0-0.8,0.1-1.2,0.4
			c-0.3,0.3-0.5,0.7-0.6,1.2h3.4C39.2,243.9,39.1,243.6,39,243.4z"/>
		<path class="st2" d="M48.9,245h-4.3c0,0.5,0.2,1,0.6,1.2c0.3,0.3,0.7,0.5,1.2,0.5c0.4,0,0.7-0.1,1-0.3c0.3-0.2,0.4-0.4,0.6-0.7h1
			c-0.1,0.5-0.4,0.9-0.9,1.3s-1,0.5-1.6,0.5c-0.5,0-1-0.1-1.4-0.3c-0.4-0.2-0.7-0.6-0.9-1s-0.3-0.9-0.3-1.5s0.1-1.1,0.3-1.5
			c0.2-0.4,0.5-0.8,0.9-1c0.4-0.2,0.9-0.3,1.4-0.3c0.5,0,1,0.1,1.4,0.3c0.4,0.2,0.7,0.5,0.9,0.9c0.2,0.4,0.3,0.8,0.3,1.3
			C48.9,244.6,48.9,244.8,48.9,245z M47.8,243.4c-0.2-0.2-0.4-0.4-0.6-0.6c-0.3-0.1-0.6-0.2-0.9-0.2c-0.5,0-0.8,0.1-1.2,0.4
			c-0.3,0.3-0.5,0.7-0.6,1.2H48C48,243.9,47.9,243.6,47.8,243.4z"/>
		<path class="st2" d="M52.9,247.4l-1.3-2l-1.2,2h-0.9l1.8-2.7l-1.8-2.7h1l1.3,2l1.2-2h0.9l-1.7,2.7l1.8,2.7
			C54,247.4,52.9,247.4,52.9,247.4z"/>
		<path class="st2" d="M56.5,242.2c0.3-0.2,0.8-0.3,1.2-0.3c0.5,0,0.9,0.1,1.3,0.3s0.7,0.6,0.9,1c0.2,0.4,0.3,0.9,0.3,1.5
			c0,0.5-0.1,1-0.3,1.5c-0.2,0.4-0.5,0.8-0.9,1s-0.8,0.4-1.3,0.4c-0.5,0-0.9-0.1-1.2-0.3s-0.6-0.5-0.8-0.8v3.6h-0.9v-8h0.9v1
			C55.9,242.6,56.2,242.4,56.5,242.2z M59.2,243.6c-0.2-0.3-0.4-0.5-0.7-0.7c-0.3-0.2-0.6-0.2-0.9-0.2s-0.6,0.1-0.9,0.2
			c-0.3,0.2-0.5,0.4-0.7,0.7c-0.2,0.3-0.2,0.7-0.2,1.1c0,0.4,0.1,0.8,0.2,1.1c0.2,0.3,0.4,0.5,0.7,0.7s0.6,0.2,0.9,0.2
			c0.3,0,0.6-0.1,0.9-0.2s0.5-0.4,0.7-0.7c0.2-0.3,0.2-0.7,0.2-1.1C59.4,244.2,59.3,243.9,59.2,243.6z"/>
		<path class="st2" d="M66.4,245h-4.3c0,0.5,0.2,1,0.6,1.2c0.3,0.3,0.7,0.5,1.2,0.5c0.4,0,0.7-0.1,1-0.3c0.3-0.2,0.4-0.4,0.6-0.7h1
			c-0.1,0.5-0.4,0.9-0.9,1.3s-1,0.5-1.6,0.5c-0.5,0-1-0.1-1.4-0.3c-0.4-0.2-0.7-0.6-0.9-1c-0.2-0.4-0.3-0.9-0.3-1.5s0.1-1.1,0.3-1.5
			c0.2-0.4,0.5-0.8,0.9-1c0.4-0.2,0.9-0.3,1.4-0.3c0.5,0,1,0.1,1.4,0.3c0.4,0.2,0.7,0.5,0.9,0.9c0.2,0.4,0.3,0.8,0.3,1.3
			C66.5,244.6,66.5,244.8,66.4,245z M65.3,243.4c-0.2-0.2-0.4-0.4-0.6-0.6c-0.3-0.1-0.6-0.2-0.9-0.2c-0.5,0-0.8,0.1-1.2,0.4
			c-0.3,0.3-0.5,0.7-0.6,1.2h3.4C65.5,243.9,65.5,243.6,65.3,243.4z"/>
		<path class="st2" d="M69.2,242.1c0.3-0.2,0.6-0.3,1.1-0.3v0.9h-0.2c-1,0-1.5,0.6-1.5,1.6v2.9h-0.9v-5.4h0.9v0.9
			C68.7,242.5,68.9,242.3,69.2,242.1z"/>
		<path class="st2" d="M72.5,242.7v3.2c0,0.3,0.1,0.5,0.2,0.6s0.3,0.2,0.6,0.2h0.7v0.8h-0.8c-0.5,0-0.9-0.1-1.1-0.4
			s-0.4-0.6-0.4-1.1v-3.2h-0.7v-0.7h0.7v-1.4h0.9v1.4h1.4v0.7L72.5,242.7L72.5,242.7z"/>
		<path class="st2" d="M75.8,247.2c-0.3-0.1-0.6-0.3-0.8-0.6s-0.3-0.6-0.3-0.9h0.9c0,0.3,0.1,0.5,0.4,0.7c0.2,0.2,0.5,0.3,0.9,0.3
			c0.3,0,0.6-0.1,0.8-0.2s0.3-0.3,0.3-0.6c0-0.2-0.1-0.4-0.3-0.5c-0.2-0.1-0.5-0.2-1-0.3c-0.4-0.1-0.7-0.2-1-0.3s-0.5-0.3-0.6-0.5
			c-0.2-0.2-0.3-0.5-0.3-0.9c0-0.3,0.1-0.5,0.2-0.8c0.2-0.2,0.4-0.4,0.7-0.6c0.3-0.1,0.6-0.2,1-0.2c0.6,0,1.1,0.1,1.4,0.4
			s0.6,0.7,0.6,1.2h-0.9c0-0.3-0.1-0.5-0.3-0.7c-0.2-0.2-0.5-0.3-0.8-0.3c-0.3,0-0.6,0.1-0.8,0.2s-0.3,0.3-0.3,0.5
			c0,0.2,0.1,0.3,0.2,0.4c0.1,0.1,0.3,0.2,0.4,0.3c0.2,0.1,0.4,0.2,0.7,0.2c0.4,0.1,0.7,0.2,0.9,0.3c0.2,0.1,0.4,0.3,0.6,0.5
			c0.2,0.2,0.3,0.5,0.3,0.8c0,0.3-0.1,0.6-0.2,0.8c-0.2,0.2-0.4,0.4-0.7,0.6c-0.3,0.1-0.6,0.2-1,0.2
			C76.5,247.4,76.1,247.4,75.8,247.2z"/>
	</g>
	<g>
		<polygon class="st2" points="92.9,206.7 91.7,206.7 90.2,213.1 95.1,213.1 97.6,212.3 		"/>
	</g>
	<polygon class="st3" points="61.6,206.7 60.6,212.4 60.2,214.6 68.4,214.6 68.6,213.5 69.8,206.7 	"/>
</g>
<g>
	<g>
		<path class="st2" d="M495.2,71.3c-50.4,0-91.3-41-91.3-91.3s41-91.3,91.3-91.3s91.3,41,91.3,91.3S545.5,71.3,495.2,71.3z
			 M495.2-100.8c-44.6,0-80.8,36.3-80.8,80.8s36.2,80.8,80.8,80.8S576,24.6,576-20S539.8-100.8,495.2-100.8z"/>
	</g>
	<g>
		<path class="st2" d="M598.3,84.7c-1.3,0-2.7-0.5-3.7-1.5l-37.3-37.3c-2-2-2-5.4,0-7.4c2-2,5.4-2,7.4,0L602,75.7c2,2.1,2,5.4,0,7.4
			C601,84.2,599.6,84.7,598.3,84.7z"/>
	</g>
</g>
<g>
	<rect x="31.9" y="3.2" class="st2" width="13.5" height="71"/>
	
		<rect x="31.9" y="3.2" transform="matrix(-1.836970e-16 1 -1 -1.836970e-16 77.3861 4.618528e-13)" class="st2" width="13.5" height="71"/>
</g>
</svg>
