<?xml version="1.0" encoding="utf-8"?>
<!-- Generator: Adobe Illustrator 26.0.0, SVG Export Plug-In . SVG Version: 6.00 Build 0)  -->
<svg version="1.1" id="Layer_1" xmlns="http://www.w3.org/2000/svg" xmlns:xlink="http://www.w3.org/1999/xlink" x="0px" y="0px"
	 viewBox="0 0 17.8 14.8" style="enable-background:new 0 0 17.8 14.8;" xml:space="preserve">
<style type="text/css">
	.st0{fill:#FCFCFC;}
	.st1{fill:#091220;}
	.st2{fill:#FFFFFF;}
	.st3{fill:#FFA500;}
</style>
<g>
	<path class="st0" d="M311.2-76.5c20.5,0,37.2,16.7,37.2,37.2S331.8-2,311.2-2S274-18.7,274-39.2S290.7-76.5,311.2-76.5 M311.2-85.4
		c-25.5,0-46.1,20.7-46.1,46.1s20.7,46.2,46.1,46.2s46.1-20.7,46.1-46.2C357.4-64.7,336.7-85.4,311.2-85.4L311.2-85.4z"/>
	<path class="st0" d="M333.1,28.8c23.8,0,43.1,19.3,43.1,43.1V85c0,10-8.2,18.2-18.2,18.2h-89.8c-10,0-18.2-8.2-18.2-18.2V71.8
		c0-23.8,19.3-43.1,43.1-43.1L333.1,28.8 M333.1,19.8h-40c-28.7,0-52,23.3-52,52V85c0,15,12.1,27.1,27.1,27.1H358
		c15,0,27.1-12.1,27.1-27.1V71.8C385.1,43.1,361.8,19.8,333.1,19.8L333.1,19.8z"/>
</g>
<g>
	<g>
		<polygon class="st1" points="-85.6,187.2 -85.6,187.2 -85.6,186.9 		"/>
	</g>
	<g>
		<g>
			<path class="st2" d="M95.6,161.4H-78c-4.5,0-8.2,3.7-8.2,8.2v36.7c0,4.5,3.7,8.2,8.2,8.2h44.6v-2.8H-78c-3,0-5.4-2.4-5.4-5.4
				v-36.7c0-3,2.4-5.4,5.4-5.4H95.6c3,0,5.4,2.4,5.4,5.4v36.7c0,3-2.4,5.4-5.4,5.4H51.1v2.8h44.6c4.5,0,8.2-3.7,8.2-8.2v-36.7
				C103.8,165,100.1,161.4,95.6,161.4z"/>
		</g>
	</g>
	<g>
		<g>
			<path class="st2" d="M-59.5,195.3l3.5-19.9h-8.2l-4.6,26.1h16.1l1.1-6.2L-59.5,195.3L-59.5,195.3z"/>
		</g>
		<g>
			<path class="st2" d="M-30.6,175.3c-1-2.6-1.8-4.4-1.8-4.4l-0.3-0.6l-0.5,0.4c-0.2,0.2-2.2,2.1-4.6,4.6h-7.9l-2.6,14.7
				c-0.2,0.9-0.3,1.9-0.3,2.8c0,2.9,0.9,5.1,2.6,6.6c1.8,1.5,4.1,2.3,7,2.3c2.3,0,4.4-0.4,6.3-1.3c1.9-0.9,3.5-2.2,4.8-3.9
				c1.3-1.8,2.2-3.9,2.6-6.5l2.6-14.7L-30.6,175.3L-30.6,175.3z M-33,171.9c0.4,0.9,1.2,2.8,2,5.1c0,0.1,0,0.2,0.1,0.2
				c1.4,3.9,2,9,1.5,11.9c-0.2,1.2-0.6,2.3-1.2,3.3c-1.8,3.2-4.9,4.8-7.9,4.3c-2-0.4-3.6-1.6-4.7-3.6c-1.1-2-1.5-4.4-1-6.8
				c0.5-2.6,3.6-6.5,6.5-9.6C-35.7,174.5-33.8,172.7-33,171.9z"/>
		</g>
		<g>
			<path class="st2" d="M1.7,182.1c0.1-0.5,0.1-0.9,0.1-1.4c0-1.8-0.7-3.1-2-4c-1.3-0.9-3.2-1.4-5.5-1.4H-19l-4.6,26.1h13.7
				c2.8,0,5.1-0.6,6.8-1.9c1.7-1.2,2.8-3,3.2-5.3c0.1-0.4,0.1-0.9,0.1-1.3c0-1.2-0.3-2.3-1-3.1c-0.7-0.9-1.7-1.5-2.9-1.8
				c1.4-0.4,2.6-1,3.6-2.1C0.8,184.9,1.5,183.6,1.7,182.1z M-8,193.1c-0.1,0.6-0.3,1.1-0.8,1.4c-0.4,0.3-1,0.4-1.7,0.4h-3.7l0.6-3.7
				h3.7c1.2,0,1.9,0.5,1.9,1.4C-8,192.8-8,193-8,193.1z M-6.9,183.7c-0.1,0.6-0.3,1.1-0.8,1.4c-0.4,0.3-1,0.4-1.7,0.4h-3.2l0.7-3.7
				h3.2c0.6,0,1.1,0.1,1.4,0.3c0.3,0.2,0.5,0.6,0.5,1.1C-6.9,183.4-6.9,183.6-6.9,183.7z"/>
		</g>
		<g>
			<path class="st2" d="M24.8,177.2c-1.4-1.2-3.6-1.9-6.4-1.9H6.3l-4.6,26.1h8.2l1.7-9.4l3.3,9.4h9l-3.9-10c1.9-0.6,3.5-1.6,4.7-2.9
				s2-2.9,2.3-4.7c0.1-0.5,0.2-1,0.2-1.7C27,180.1,26.3,178.5,24.8,177.2z M18.5,184.4c-0.2,0.8-0.4,1.3-0.9,1.7
				c-0.5,0.4-1.1,0.5-1.9,0.5h-3.2l0.8-4.4h3.3c0.7,0,1.2,0.1,1.5,0.5c0.3,0.3,0.5,0.7,0.5,1.3C18.5,184.1,18.5,184.3,18.5,184.4z"
				/>
		</g>
		<g>
			<path class="st2" d="M31,175.3l-4.6,26.1h8.2l4.6-26.1H31z"/>
		</g>
		<g>
			<path class="st2" d="M60.2,181.8l1.1-6.5H42.9l-4.6,26.1h8.2l1.7-9.9h7.4l1.1-6.2h-7.4l0.6-3.6L60.2,181.8L60.2,181.8z"/>
		</g>
		<g>
			<path class="st2" d="M79.9,175.3l-5.8,9.3l-2.5-9.3h-9.4l6.2,18.2l-1.4,7.9h8.2l1.4-7.9l12.6-18.2H79.9z"/>
		</g>
	</g>
	<g>
		<g>
			<path class="st2" d="M-34.8,194.7c1.3-1,2.2-2.3,2.8-3.7c0.3-0.7,0.5-1.5,0.6-2.2c0.1-0.4,0.1-0.8,0.2-1.2c0-0.4,0-0.8,0.1-1.2
				c0.1,0.4,0.2,0.8,0.3,1.2c0,0.4,0.1,0.8,0.1,1.3c0,0.9-0.2,1.7-0.5,2.5c-0.3,0.8-0.8,1.6-1.5,2.1
				C-33.2,194.1-34,194.5-34.8,194.7z"/>
		</g>
	</g>
	<g>
		<path class="st2" d="M-29.3,211.4v3.2c0,0.3,0.1,0.4,0.2,0.6s0.3,0.2,0.6,0.2h0.7v0.8h-0.8c-0.5,0-0.9-0.1-1.1-0.4
			c-0.2-0.2-0.4-0.6-0.4-1.1v-3.2h-0.7v-0.7h0.7v-1.4h0.9v1.4h1.4v0.7L-29.3,211.4L-29.3,211.4z"/>
		<path class="st2" d="M-25.2,210.8c0.3-0.2,0.7-0.3,1.1-0.3v0.9h-0.2c-1,0-1.5,0.6-1.5,1.6v3h-0.9v-5.4h0.9v0.9
			C-25.7,211.2-25.5,210.9-25.2,210.8z"/>
		<path class="st2" d="M-18.3,210.6v5.4h-0.9v-0.8c-0.2,0.3-0.4,0.5-0.7,0.6c-0.3,0.2-0.6,0.2-1,0.2c-0.4,0-0.8-0.1-1.1-0.3
			s-0.6-0.4-0.8-0.8c-0.2-0.4-0.3-0.8-0.3-1.3v-3.2h0.9v3.1c0,0.5,0.1,0.9,0.4,1.2c0.3,0.3,0.6,0.4,1.1,0.4c0.5,0,0.9-0.2,1.1-0.5
			c0.3-0.3,0.4-0.7,0.4-1.3v-3L-18.3,210.6L-18.3,210.6z"/>
		<path class="st2" d="M-15.9,215.9c-0.3-0.1-0.6-0.3-0.8-0.6s-0.3-0.5-0.3-0.9h0.9c0,0.3,0.2,0.5,0.4,0.7c0.2,0.2,0.5,0.3,0.9,0.3
			c0.3,0,0.6-0.1,0.8-0.2c0.2-0.1,0.3-0.3,0.3-0.6c0-0.2-0.1-0.4-0.3-0.5s-0.5-0.2-1-0.3c-0.4-0.1-0.7-0.2-1-0.3
			c-0.2-0.1-0.5-0.3-0.7-0.5c-0.2-0.2-0.3-0.5-0.3-0.9c0-0.3,0.1-0.5,0.2-0.8c0.2-0.2,0.4-0.4,0.7-0.6c0.3-0.1,0.7-0.2,1-0.2
			c0.6,0,1.1,0.2,1.4,0.4c0.4,0.3,0.6,0.7,0.6,1.2h-0.9c0-0.3-0.1-0.5-0.3-0.7s-0.5-0.3-0.8-0.3c-0.3,0-0.6,0.1-0.8,0.2
			c-0.2,0.1-0.3,0.3-0.3,0.5c0,0.2,0.1,0.3,0.2,0.4c0.1,0.1,0.3,0.2,0.4,0.3c0.2,0.1,0.4,0.2,0.7,0.2c0.4,0.1,0.7,0.2,0.9,0.3
			c0.2,0.1,0.4,0.3,0.6,0.5c0.2,0.2,0.3,0.5,0.3,0.8c0,0.3-0.1,0.6-0.2,0.8s-0.4,0.4-0.7,0.6c-0.3,0.1-0.6,0.2-1,0.2
			C-15.2,216.1-15.6,216.1-15.9,215.9z"/>
		<path class="st2" d="M-10.5,211.4v3.2c0,0.3,0.1,0.4,0.2,0.6s0.3,0.2,0.6,0.2h0.7v0.8h-0.8c-0.5,0-0.9-0.1-1.1-0.4
			c-0.2-0.2-0.4-0.6-0.4-1.1v-3.2h-0.7v-0.7h0.7v-1.4h0.9v1.4h1.4v0.7L-10.5,211.4L-10.5,211.4z"/>
		<path class="st2" d="M-4.2,211.4v3.2c0,0.3,0.1,0.4,0.2,0.6s0.3,0.2,0.6,0.2h0.7v0.8h-0.8c-0.5,0-0.9-0.1-1.1-0.4
			c-0.2-0.2-0.4-0.6-0.4-1.1v-3.2h-0.7v-0.7h0.7v-1.4h0.9v1.4h1.4v0.7L-4.2,211.4L-4.2,211.4z"/>
		<path class="st2" d="M2.1,210.8c0.3,0.2,0.6,0.4,0.8,0.8c0.2,0.3,0.3,0.8,0.3,1.3v3.2H2.2V213c0-0.5-0.1-0.9-0.4-1.2
			c-0.3-0.3-0.6-0.4-1.1-0.4s-0.8,0.1-1.1,0.4s-0.4,0.7-0.4,1.3v3h-0.9v-7.3h0.9v2.7c0.2-0.3,0.4-0.5,0.7-0.6
			c0.3-0.1,0.7-0.2,1.1-0.2C1.4,210.5,1.7,210.6,2.1,210.8z"/>
		<path class="st2" d="M9.5,213.7H5.2c0,0.5,0.2,0.9,0.6,1.2c0.3,0.3,0.7,0.4,1.2,0.4c0.4,0,0.7-0.1,1-0.3c0.3-0.2,0.4-0.4,0.6-0.7
			h1c-0.2,0.5-0.4,0.9-0.9,1.3s-1,0.5-1.6,0.5c-0.5,0-1-0.1-1.4-0.3c-0.4-0.2-0.7-0.6-0.9-1s-0.3-0.9-0.3-1.5c0-0.6,0.1-1,0.3-1.5
			c0.2-0.4,0.5-0.8,0.9-1c0.4-0.2,0.9-0.3,1.4-0.3c0.5,0,1,0.1,1.4,0.3c0.4,0.2,0.7,0.5,0.9,0.9c0.2,0.4,0.3,0.8,0.3,1.3
			C9.5,213.3,9.5,213.5,9.5,213.7z M8.4,212c-0.2-0.2-0.4-0.4-0.6-0.6c-0.3-0.1-0.6-0.2-0.9-0.2c-0.5,0-0.8,0.1-1.2,0.4
			c-0.3,0.3-0.5,0.7-0.6,1.2h3.4C8.6,212.6,8.5,212.3,8.4,212z"/>
		<path class="st2" d="M18.3,213.7H14c0,0.5,0.2,0.9,0.6,1.2c0.3,0.3,0.7,0.4,1.2,0.4c0.4,0,0.7-0.1,1-0.3c0.3-0.2,0.4-0.4,0.6-0.7
			h1c-0.1,0.5-0.4,0.9-0.9,1.3s-1,0.5-1.6,0.5c-0.5,0-1-0.1-1.4-0.3c-0.4-0.2-0.7-0.6-0.9-1s-0.3-0.9-0.3-1.5c0-0.6,0.1-1,0.3-1.5
			c0.2-0.4,0.5-0.8,0.9-1c0.4-0.2,0.9-0.3,1.4-0.3c0.5,0,1,0.1,1.4,0.3c0.4,0.2,0.7,0.5,0.9,0.9c0.2,0.4,0.3,0.8,0.3,1.3
			C18.3,213.3,18.3,213.5,18.3,213.7z M17.2,212c-0.2-0.2-0.4-0.4-0.6-0.6c-0.3-0.1-0.6-0.2-0.9-0.2c-0.5,0-0.8,0.1-1.2,0.4
			c-0.3,0.3-0.5,0.7-0.6,1.2h3.4C17.4,212.6,17.3,212.3,17.2,212z"/>
		<path class="st2" d="M22.3,216l-1.3-2l-1.2,2h-0.9l1.8-2.7l-1.8-2.7h1l1.3,2l1.2-2h0.9l-1.7,2.7l1.8,2.7
			C23.3,216,22.3,216,22.3,216z"/>
		<path class="st2" d="M25.9,210.8c0.3-0.2,0.8-0.3,1.2-0.3c0.5,0,0.9,0.1,1.3,0.3c0.4,0.2,0.7,0.6,0.9,1c0.2,0.4,0.3,0.9,0.3,1.5
			c0,0.6-0.1,1-0.3,1.5c-0.2,0.4-0.5,0.8-0.9,1c-0.4,0.2-0.8,0.4-1.3,0.4c-0.5,0-0.9-0.1-1.2-0.3c-0.3-0.2-0.6-0.5-0.8-0.8v3.6h-0.9
			v-8h0.9v1C25.3,211.3,25.6,211,25.9,210.8z M28.6,212.2c-0.2-0.3-0.4-0.5-0.7-0.7s-0.6-0.2-0.9-0.2s-0.6,0.1-0.9,0.2
			c-0.3,0.2-0.5,0.4-0.7,0.7c-0.2,0.3-0.2,0.7-0.2,1.1c0,0.4,0.1,0.8,0.2,1.1c0.2,0.3,0.4,0.5,0.7,0.7s0.6,0.2,0.9,0.2
			c0.3,0,0.6-0.1,0.9-0.2s0.5-0.4,0.7-0.7c0.2-0.3,0.2-0.7,0.2-1.1C28.8,212.9,28.7,212.5,28.6,212.2z"/>
		<path class="st2" d="M35.8,213.7h-4.3c0,0.5,0.2,0.9,0.6,1.2c0.3,0.3,0.7,0.4,1.2,0.4c0.4,0,0.7-0.1,1-0.3
			c0.3-0.2,0.4-0.4,0.6-0.7h1c-0.1,0.5-0.4,0.9-0.9,1.3s-1,0.5-1.6,0.5c-0.5,0-1-0.1-1.4-0.3c-0.4-0.2-0.7-0.6-0.9-1
			c-0.2-0.4-0.3-0.9-0.3-1.5c0-0.6,0.1-1,0.3-1.5c0.2-0.4,0.5-0.8,0.9-1c0.4-0.2,0.9-0.3,1.4-0.3c0.5,0,1,0.1,1.4,0.3
			c0.4,0.2,0.7,0.5,0.9,0.9c0.2,0.4,0.3,0.8,0.3,1.3C35.9,213.3,35.9,213.5,35.8,213.7z M34.7,212c-0.2-0.2-0.4-0.4-0.6-0.6
			c-0.3-0.1-0.6-0.2-0.9-0.2c-0.5,0-0.8,0.1-1.2,0.4c-0.3,0.3-0.5,0.7-0.6,1.2h3.4C34.9,212.6,34.9,212.3,34.7,212z"/>
		<path class="st2" d="M38.6,210.8c0.3-0.2,0.6-0.3,1.1-0.3v0.9h-0.2c-1,0-1.5,0.6-1.5,1.6v3h-0.9v-5.4H38v0.9
			C38.1,211.2,38.3,210.9,38.6,210.8z"/>
		<path class="st2" d="M41.8,211.4v3.2c0,0.3,0.1,0.4,0.2,0.6s0.3,0.2,0.6,0.2h0.7v0.8h-0.8c-0.5,0-0.9-0.1-1.1-0.4
			c-0.2-0.2-0.4-0.6-0.4-1.1v-3.2h-0.7v-0.7h0.7v-1.4h0.9v1.4h1.4v0.7L41.8,211.4L41.8,211.4z"/>
		<path class="st2" d="M45.1,215.9c-0.3-0.1-0.6-0.3-0.8-0.6s-0.3-0.5-0.3-0.9H45c0,0.3,0.1,0.5,0.4,0.7c0.2,0.2,0.5,0.3,0.9,0.3
			c0.3,0,0.6-0.1,0.8-0.2c0.2-0.1,0.3-0.3,0.3-0.6c0-0.2-0.1-0.4-0.3-0.5s-0.5-0.2-1-0.3c-0.4-0.1-0.7-0.2-1-0.3s-0.5-0.3-0.6-0.5
			c-0.2-0.2-0.3-0.5-0.3-0.9c0-0.3,0.1-0.5,0.2-0.8c0.2-0.2,0.4-0.4,0.7-0.6c0.3-0.1,0.6-0.2,1-0.2c0.6,0,1.1,0.2,1.4,0.4
			c0.4,0.3,0.6,0.7,0.6,1.2h-0.9c0-0.3-0.1-0.5-0.3-0.7s-0.5-0.3-0.8-0.3c-0.3,0-0.6,0.1-0.8,0.2S45,211.8,45,212
			c0,0.2,0.1,0.3,0.2,0.4c0.1,0.1,0.3,0.2,0.4,0.3c0.2,0.1,0.4,0.2,0.7,0.2c0.4,0.1,0.7,0.2,0.9,0.3s0.4,0.3,0.6,0.5
			c0.2,0.2,0.3,0.5,0.3,0.8c0,0.3-0.1,0.6-0.2,0.8s-0.4,0.4-0.7,0.6c-0.3,0.1-0.6,0.2-1,0.2C45.8,216.1,45.5,216.1,45.1,215.9z"/>
	</g>
	<g>
		<polygon class="st2" points="62.3,175.3 61.1,175.3 59.6,181.8 64.5,181.8 67,181 		"/>
	</g>
	<polygon class="st3" points="31,175.3 30,181.1 29.6,183.3 37.8,183.3 38,182.2 39.2,175.3 	"/>
</g>
<g>
	<g>
		<path class="st2" d="M464.6,40c-50.4,0-91.3-41-91.3-91.3s41-91.3,91.3-91.3s91.3,41,91.3,91.3S514.9,40,464.6,40z M464.6-132.1
			c-44.6,0-80.8,36.3-80.8,80.8s36.2,80.8,80.8,80.8s80.8-36.3,80.8-80.8S509.1-132.1,464.6-132.1z"/>
	</g>
	<g>
		<path class="st2" d="M567.7,53.4c-1.3,0-2.7-0.5-3.7-1.5l-37.3-37.3c-2-2-2-5.4,0-7.4c2-2,5.4-2,7.4,0l37.3,37.3
			c2,2.1,2,5.4,0,7.4C570.4,52.9,569,53.4,567.7,53.4z"/>
	</g>
</g>
<g>
	<rect x="137.4" y="-28.6" class="st3" width="13.5" height="71"/>
	
		<rect x="137.4" y="-28.6" transform="matrix(-1.836970e-16 1 -1 -1.836970e-16 151.031 -137.2185)" class="st3" width="13.5" height="71"/>
</g>
<image style="overflow:visible;" width="776" height="495" xlink:href="5968F5DB.jpg"  transform="matrix(1 0 0 1 603.0248 -36.2061)">
</image>
<g>
	<g>
		<polygon class="st2" points="10.9,14.6 8.6,12.6 13.3,7.4 8.6,2.1 10.9,0.1 17.3,7.4 		"/>
	</g>
	<g>
		<rect x="0.5" y="5.9" class="st2" width="14.8" height="3"/>
	</g>
</g>
</svg>
