<svg width="19" height="16" viewBox="0 0 19 16" fill="none" xmlns="http://www.w3.org/2000/svg">
<path d="M17.9371 6.71294H1.36295C1.25713 6.71294 1.15565 6.6709 1.08082 6.59608C1.006 6.52125 0.963928 6.41975 0.963928 6.31393C0.963928 6.20811 1.006 6.10662 1.08082 6.03179C1.15565 5.95696 1.25713 5.91493 1.36295 5.91493H17.9371C18.0429 5.91493 18.1444 5.95696 18.2192 6.03179C18.294 6.10662 18.3361 6.20811 18.3361 6.31393C18.3361 6.41975 18.294 6.52125 18.2192 6.59608C18.1444 6.6709 18.0429 6.71294 17.9371 6.71294Z" fill="white" stroke="white"/>
<path d="M14.3645 6.71294C14.2945 6.71232 14.2258 6.69327 14.1655 6.65771C14.1051 6.62215 14.0552 6.57133 14.0207 6.51037L11.3627 1.90644C11.3364 1.86093 11.3193 1.81067 11.3125 1.75853C11.3056 1.7064 11.3091 1.65342 11.3228 1.60265C11.3365 1.55188 11.3601 1.50431 11.3922 1.46269C11.4243 1.42106 11.4644 1.3862 11.5101 1.36011C11.5551 1.33391 11.6049 1.31692 11.6566 1.31015C11.7082 1.30338 11.7607 1.30695 11.811 1.32066C11.8613 1.33437 11.9083 1.35794 11.9494 1.39001C11.9905 1.42208 12.0248 1.462 12.0503 1.50744L14.7144 6.11137C14.7514 6.17303 14.7714 6.24345 14.7722 6.3154C14.7731 6.38734 14.7547 6.45821 14.7191 6.52071C14.6835 6.58322 14.6319 6.63511 14.5695 6.67105C14.5072 6.707 14.4365 6.72569 14.3645 6.72522V6.71294Z" fill="white" stroke="white"/>
<path d="M4.95402 6.71294C4.88473 6.71275 4.81685 6.69365 4.75762 6.6577C4.71196 6.6316 4.67188 6.59674 4.63975 6.55512C4.60761 6.5135 4.58405 6.46593 4.57036 6.41516C4.55667 6.36439 4.55316 6.31141 4.56002 6.25927C4.56687 6.20714 4.58395 6.15687 4.6103 6.11136L7.26827 1.50744C7.32118 1.41545 7.40845 1.34825 7.51091 1.32062C7.61336 1.293 7.72263 1.3072 7.81461 1.36011C7.9066 1.41302 7.97379 1.50031 8.00142 1.60276C8.02905 1.70522 8.01484 1.81446 7.96193 1.90644L5.29781 6.51037C5.26383 6.57175 5.21402 6.62292 5.15357 6.65854C5.09311 6.69417 5.02419 6.71295 4.95402 6.71294Z" fill="white" stroke="white"/>
<path d="M12.0441 15H7.28055C6.61115 14.9956 5.96151 14.7725 5.43067 14.3647C4.89982 13.9569 4.51687 13.3867 4.34016 12.741L2.63976 6.41215C2.61989 6.35987 2.61124 6.304 2.61436 6.24815C2.61748 6.19231 2.63233 6.13775 2.6579 6.088C2.68346 6.03826 2.71921 5.99445 2.7628 5.95941C2.80639 5.92436 2.85687 5.89888 2.91095 5.8846C2.96502 5.87033 3.02149 5.86758 3.0767 5.87653C3.13191 5.88549 3.18458 5.90596 3.23136 5.9366C3.27815 5.96725 3.31799 6.00738 3.34826 6.05441C3.37853 6.10143 3.39856 6.1543 3.40708 6.20958L5.10748 12.5323C5.23664 13.0103 5.51927 13.4326 5.91189 13.7343C6.30452 14.036 6.78542 14.2003 7.28055 14.202H12.0441C12.5384 14.2 13.0184 14.0354 13.41 13.7337C13.8016 13.432 14.0831 13.0098 14.211 12.5323L15.9113 6.20958C15.9382 6.10701 16.0048 6.01932 16.0963 5.96578C16.1878 5.91225 16.2968 5.89727 16.3994 5.92414C16.5019 5.951 16.5896 6.0175 16.6431 6.10903C16.6967 6.20055 16.7117 6.30958 16.6848 6.41215L14.9844 12.741C14.8077 13.3867 14.4247 13.9569 13.8939 14.3647C13.3631 14.7725 12.7135 14.9956 12.0441 15Z" fill="white" stroke="white"/>
</svg>
