<?xml version="1.0" encoding="utf-8"?>
<!-- Generator: Adobe Illustrator 26.0.0, SVG Export Plug-In . SVG Version: 6.00 Build 0)  -->
<svg version="1.1" id="Layer_1" xmlns="http://www.w3.org/2000/svg" xmlns:xlink="http://www.w3.org/1999/xlink" x="0px" y="0px"
	 viewBox="0 0 200 200" style="enable-background:new 0 0 200 200;" xml:space="preserve">
<style type="text/css">
	.st0{fill:#FCFCFC;}
</style>
<g>
	<path class="st0" d="M98.15,10.15c20.53,0,37.24,16.71,37.24,37.24s-16.71,37.24-37.24,37.24S60.91,67.92,60.91,47.38
		S77.62,10.15,98.15,10.15 M98.15,1.23C72.66,1.23,52,21.89,52,47.38c0,25.49,20.66,46.15,46.15,46.15s46.15-20.66,46.15-46.15
		C144.31,21.89,123.64,1.23,98.15,1.23L98.15,1.23z"/>
	<path class="st0" d="M120,115.38c23.76,0,43.08,19.33,43.08,43.08v13.19c0,10.04-8.17,18.21-18.21,18.21H55.12
		c-10.04,0-18.21-8.17-18.21-18.21v-13.19c0-23.76,19.33-43.08,43.08-43.08H120 M120,106.46H80c-28.72,0-52,23.28-52,52v13.19
		c0,14.98,12.14,27.12,27.12,27.12h89.75c14.98,0,27.12-12.14,27.12-27.12v-13.19C172,129.74,148.72,106.46,120,106.46L120,106.46z"
		/>
</g>
</svg>
