<svg width="16" height="16" viewBox="0 0 16 16" fill="none" xmlns="http://www.w3.org/2000/svg">
<path d="M7.50611 14C6.22001 14.0012 4.96245 13.6209 3.8926 12.9071C2.82274 12.1933 1.9887 11.1782 1.49597 9.99026C1.00324 8.80229 0.873987 7.49486 1.1246 6.23341C1.3752 4.97197 1.99442 3.81322 2.90383 2.90381C3.81324 1.9944 4.972 1.37521 6.23344 1.1246C7.49489 0.873992 8.80231 1.00323 9.99028 1.49596C11.1782 1.98868 12.1934 2.82275 12.9071 3.89261C13.6209 4.96246 14.0012 6.22001 14 7.50611C13.9968 9.2274 13.3116 10.8773 12.0944 12.0944C10.8773 13.3116 9.2274 13.9968 7.50611 14ZM7.50611 1.95912C6.40876 1.95791 5.33574 2.28221 4.42274 2.89098C3.50973 3.49976 2.79775 4.36566 2.37697 5.37913C1.9562 6.3926 1.8455 7.50811 2.05885 8.58452C2.27219 9.66093 2.8 10.6499 3.57551 11.4263C4.35103 12.2026 5.33945 12.7315 6.41562 12.9461C7.4918 13.1606 8.60743 13.0511 9.62137 12.6314C10.6353 12.2118 11.502 11.5008 12.1117 10.5885C12.7215 9.67615 13.047 8.60346 13.047 7.50611C13.0454 6.03651 12.4613 4.62747 11.4227 3.58773C10.3841 2.548 8.9757 1.96235 7.50611 1.95912Z" fill="white" stroke="white"/>
<path d="M14.5478 15C14.4275 14.9995 14.3124 14.9513 14.2276 14.866L12.1321 12.7752C12.0475 12.6901 12 12.575 12 12.4549C12 12.3349 12.0475 12.2197 12.1321 12.1346C12.1738 12.092 12.2236 12.0581 12.2786 12.035C12.3336 12.0119 12.3926 12 12.4523 12C12.5119 12 12.5709 12.0119 12.6259 12.035C12.6808 12.0581 12.7306 12.092 12.7724 12.1346L14.8679 14.2254C14.9311 14.2889 14.974 14.3697 14.9914 14.4576C15.0087 14.5455 14.9998 14.6365 14.9656 14.7193C14.9314 14.8021 14.8734 14.8729 14.7991 14.9229C14.7248 14.9728 14.6373 14.9996 14.5478 15Z" fill="white" stroke="white"/>
</svg>
